<?xml version="1.0" standalone="no"?>
<!DOCTYPE svg PUBLIC "-//W3C//DTD SVG 20010904//EN"
 "http://www.w3.org/TR/2001/REC-SVG-20010904/DTD/svg10.dtd">
<svg version="1.0" xmlns="http://www.w3.org/2000/svg"
 width="300.000000pt" height="300.000000pt" viewBox="0 0 300.000000 300.000000"
 preserveAspectRatio="xMidYMid meet">
<metadata>
Created by potrace 1.10, written by Peter Selinger 2001-2011
</metadata>
<g transform="translate(0.000000,300.000000) scale(0.100000,-0.100000)"
fill="#000000" stroke="none">
<path d="M317 2529 c-93 -22 -206 -105 -253 -185 -61 -105 -64 -127 -64 -570
l0 -404 1500 0 1500 0 0 404 c0 368 -2 410 -19 465 -39 125 -111 207 -231 265
l-65 31 -1165 2 c-657 0 -1181 -3 -1203 -8z"/>
<path d="M0 866 c0 -55 29 -151 64 -210 35 -60 108 -122 186 -160 l65 -31
1185 0 1185 0 65 31 c119 57 193 142 230 262 11 35 20 84 20 108 l0 44 -1500
0 -1500 0 0 -44z"/>
</g>
</svg>
